Patient4_TMGait_0pt4_02_left_29_EMG.mot
version=1
nRows=33
nColumns=33
inDegrees=no
endheader
time	1LAddLong	2LGlutMax	3LGlutMed	4LIliopsoas	5LSemiMemb	6LBicFemLong	7LRecFem	8LVastMed	9LVastLat	10LGasMed	11LTibAnt	12lTibPost	13LPeroneusLong	14LSol	15LExtDigLong	16LFlexDigLong	17RAddLong	18RGlutMax	19RGlutMed	20RIliopsoas	21RSemiMemb	22RBicFemLong	23RRecFem	24RVastMed	25RVastLat	26RGasMed	27RTibAnt	28RTibPost	29RPeroneusLong	30RSol	31RExtDigLong	32RFlexDigLong
39.36	-0.00824	-0.010834	0.15335	0.014801	-0.02655	0.07843	-0.24155	-0.015106	0.15091	0.37308	0.040588	-0.039825	0.10819	-0.0737	0.053864	-0.055084	-0.093536	-0.12405	0.19608	0.090485	-0.005035	-0.014954	0.39032	-0.001526	-0.040588	-0.011292	-0.016937	-0.007019	0.089417	-0.078583	-0.001373	-0.015106
39.361	-0.018616	0.045013	0.032043	0.02533	-0.018005	0.039825	-0.27435	-0.014343	0.12528	0.16419	0.026245	-0.050659	-0.27496	0.11307	0.021973	-0.019989	-0.066071	-0.13016	0.15381	0.05188	-0.00061	0.002747	0.38971	0.014496	-0.024872	-0.004883	-0.088654	-0.008087	0.12985	0.066071	-0.001068	-0.011597
39.362	-0.015564	0.033112	0.054932	0.011749	0.014343	0.028076	-0.35965	0.004425	0.09613	-0.17166	-0.029755	-0.057373	-0.062256	0.096436	-0.057983	-0.006409	-0.050201	-0.084839	0.47119	-0.051727	-0.001373	0.013733	0.40543	0.04715	-0.023041	-0.001984	-0.16953	-0.005493	0.028839	0.03067	0.001373	-0.008545
39.363	-0.025024	0.072174	0.034485	-0.020142	0.039978	0.074158	-0.37811	0.009155	0.11612	-0.27344	-0.091705	-0.057373	0.12802	-0.11307	-0.06134	-0.003967	-0.045166	-0.083771	0.42709	-0.098724	-0.02655	-0.001831	0.38544	0.049744	-0.024261	0.002594	-0.006714	-0.003052	-0.040131	-0.081787	-0.00061	-0.011749
39.364	-0.024719	0.093842	-0.12787	0.009003	0.030518	0.17425	-0.3685	0.01236	0.13886	-0.14725	-0.073242	-0.049591	1.1354	-0.099487	-0.046539	0	-0.035858	-0.11398	-0.15976	-0.054169	-0.021973	-0.019836	0.34759	0.031433	-0.017395	0.00473	0.17471	0.004425	-0.1831	-0.077209	-0.001526	-0.007935
39.365	-0.030212	0.103	-0.22263	0.010071	0.001984	0.21591	-0.35446	0.025482	0.16205	-0.081482	-0.015869	-0.053558	0.75333	0.065765	-0.010376	0.008545	0.018463	-0.14496	-0.10529	-0.060272	-0.030212	-0.028534	0.38773	0.003357	-0.020142	0.002441	0.10162	-0.002441	-0.23834	0.035553	-0.001373	-0.012207
39.366	-0.011902	0.14984	-0.092773	0.015259	-0.02533	0.17029	-0.36209	0.025024	0.08316	-0.047302	0.002747	-0.055695	-0.49774	0.14618	-0.011292	0.001984	0.038757	-0.14969	-0.028534	-0.094757	-0.038757	-0.0383	0.36362	-0.045166	-0.012054	0.000305	-0.014801	-0.005188	-0.080719	0.093842	-0.002747	-0.022278
39.367	0.01236	0.16068	0.063171	0.01297	-0.026855	0.072632	-0.38391	0.009613	-0.096436	-0.07843	-0.02655	-0.048828	-0.88287	0.11429	0.049591	0.000153	0.025787	-0.18662	-0.044098	-0.10529	-0.040588	-0.040894	0.41534	-0.046234	-0.036011	-0.001678	0.006256	-0.001068	-0.042572	0.006256	-0.000458	-0.013733
39.368	0.037994	0.22064	0.20081	0.023193	-0.061646	-0.007172	-0.47913	0.009308	-0.15198	-0.036011	-0.002136	-0.044556	-1.2115	-0.021362	0.021667	-0.013733	0.029144	-0.1619	-0.032196	-0.21912	-0.049286	-0.03952	0.43823	-0.084076	-0.043335	0.001678	0.000305	-0.008698	0.070038	0.018005	0.001678	-0.007935
39.369	0.064697	0.20721	0.19669	0.007477	-0.024872	0.007477	-0.52643	-0.003815	-0.00473	-0.027771	-0.023651	-0.056	-0.14694	-0.11139	-0.168	-0.015106	0.037537	-0.18967	-0.042725	-0.37994	-0.04425	-0.036621	0.43289	-0.052032	-0.055389	-0.004425	-0.00946	-0.006256	0.1062	0.063019	0.003204	-0.000916
39.37	0.057068	0.15656	0.15518	-0.007324	-0.010071	-0.15656	-0.49728	-0.009003	0.18616	-0.083313	-0.076447	-0.05722	0.82138	-0.11169	-0.19226	-0.003967	-0.010223	-0.21225	-0.010376	-0.38711	-0.053711	-0.038147	0.37964	-0.048523	-0.062103	0.00473	0.005188	-0.00351	0.11932	0.10284	0.001373	-0.014343
39.371	0.016479	0.14511	0.15488	-0.000458	-0.018616	0.027008	-0.30579	-0.018463	0.27069	-0.059967	-0.032196	-0.062561	-0.39017	0.026245	-0.14862	0.009766	-0.026855	-0.21591	0.023041	-0.32044	-0.057831	-0.020599	0.3392	-0.056152	-0.045471	0.005035	-0.00824	-0.003204	0.21774	0.2002	0.006409	-0.015564
39.372	0.015564	0.15915	0.12894	0.022125	-0.021515	0.16846	-0.30029	-0.033264	0.35828	-0.048676	0.032959	-0.068054	-0.50598	-0.00061	0.19089	0.027618	-0.026703	-0.16098	0.011444	-0.12497	-0.06546	-0.039825	0.36423	-0.083618	-0.040588	0.007935	-0.016632	-0.003052	0.29327	0.30792	-0.001373	-0.013885
39.373	-0.001526	0.17303	0.22675	-0.006866	-0.039215	0.21286	-0.34805	-0.023499	0.19516	-0.019531	0.013275	-0.052185	0.10117	-0.13351	-0.033264	0.018768	-0.022125	-0.067444	0.052032	-0.003357	-0.077209	-0.047607	0.34393	-0.021667	-0.041962	0.009003	-0.011292	-0.007782	0.063324	0.25101	-0.00412	-0.013733
39.374	-0.015106	0.13626	0.10742	0.000305	-0.095825	0.24643	-0.34714	0.017242	0.096588	-0.028687	-0.11551	-0.050507	0.28259	0.015411	0.11765	0.00061	-0.01236	-0.054321	0.068665	0.048523	-0.059509	-0.035095	0.30884	-0.023956	-0.046692	0.018616	0.018005	-0.002747	-0.071259	0.10468	-0.001526	-0.020294
39.375	-0.029144	0.098419	0.097809	0.021362	-0.15518	0.31296	-0.35934	0.027618	-0.061798	-0.025024	-0.088654	-0.046082	0.040588	0.072632	0.041656	-0.013123	0.018311	-0.051727	-0.032806	-0.043945	-0.04776	-0.04364	0.24826	-0.014648	-0.038452	0.004578	0.02655	-0.00824	-0.06134	0.11856	-0.001984	-0.026703
39.376	-0.024719	0.034485	0.019684	0.021515	-0.22705	0.30243	-0.47623	0.026703	-0.029907	0.011139	-0.003357	-0.032196	0.088959	-0.1236	-0.25726	-0.018311	0.016174	-0.014038	-0.12741	0.065155	-0.050049	-0.044098	0.2388	-0.00885	-0.03891	-0.014496	0.046387	-0.00351	-0.055084	0.071716	-0.00473	-0.024567
39.377	-0.015564	0.056763	-0.050049	0.021057	-0.25116	0.22888	-0.50308	-0.00412	-0.065765	0.004883	0.045013	-0.039368	0.11658	-0.010529	-0.00061	-0.009308	0.024719	0.045929	-0.17242	0.14999	-0.041046	-0.051727	0.21591	0.023499	-0.027924	-0.014648	0.032349	-0.00946	-0.033417	-0.006866	-0.003052	-0.02121
39.378	-0.00412	0.13687	-0.13657	0.034027	-0.13565	-0.01236	-0.44723	-0.031891	-0.22736	-0.019836	0.044708	-0.034637	-0.1564	0.084229	0.027313	-0.011139	0.048981	0.091553	-0.10681	0.20248	-0.025024	-0.044861	0.23254	0.033569	-0.009613	-0.000916	0.029602	-0.009308	-0.043335	-0.095062	0.00061	-0.022583
39.379	0.011902	0.10971	-0.22522	0.050507	0.023804	-0.40924	-0.32135	-0.040588	-0.40924	-0.041199	0.028839	-0.031281	-0.33691	-0.095062	-0.21881	0.001831	0.079193	0.18341	-0.15396	0.038452	-0.018005	-0.036621	0.22232	0.002441	-0.02533	0.005951	0.000305	-0.009918	0.14679	-0.048828	-0.000763	-0.018768
39.38	0.028839	0.077362	-0.13199	0.022888	0.14389	-0.38422	-0.2066	-0.0354	-0.33035	-0.050964	-0.046539	-0.028839	-0.38406	-0.19836	-0.19516	0.019836	0.10788	0.21545	-0.15625	-0.049744	-0.021362	-0.024567	0.21133	0.0354	-0.023804	-0.002136	0.04364	-0.00412	0.19699	0.10223	0.000153	-0.02182
39.381	0.026093	0.039825	0.12177	-0.023804	0.09964	-0.51849	-0.16647	-0.019531	-0.1709	-0.093079	-0.073853	-0.028229	-0.45395	-0.13092	0.020447	0.010071	0.11444	0.21286	-0.093842	-0.16647	-0.020294	-0.035706	0.22888	0.0354	0.00061	-0.002136	0.10803	-0.009766	0.17395	0.14832	-0.001678	-0.015869
39.382	0.015259	0.061188	0.15503	-0.037994	0.026703	-0.38345	-0.21225	-0.022583	-0.098267	-0.13519	-0.080261	-0.014496	-0.021515	0.17364	0.16693	0.010376	0.090332	0.18005	-0.13626	-0.085907	-0.024261	-0.038147	0.23377	0.014954	-0.015564	-0.001068	0.10407	-0.00061	0.063782	-0.031128	0.000763	-0.012665
39.383	0.075989	0.071869	0.12695	-0.009766	-0.045776	-0.16754	-0.23529	-0.018921	-0.056152	-0.09079	-0.074768	-0.010986	0.18036	0.18372	0.1709	0.006714	0.069122	0.15167	-0.13382	0.087738	-0.029602	-0.00412	0.26443	-0.026398	-0.00412	-0.003357	0.11154	-0.009766	-0.046234	-0.26871	-0.001831	-0.010834
39.384	0.014954	0.1059	0.008087	0.008545	0.045471	-0.094299	-0.17639	-0.011292	-0.063477	-0.07843	-0.040894	-0.013123	0.30563	-0.11017	0.16998	0.019531	0.041809	0.1683	-0.03067	0.11398	-0.030975	-0.027008	0.26993	0.003357	-0.016174	-0.008698	0.047913	-0.003357	-0.094757	-0.34988	-0.001678	-0.016174
39.385	0.025024	0.11307	-0.13428	-0.001678	0.076294	0.004578	-0.11505	-0.002289	-0.14084	-0.035858	-0.024261	-0.007172	0.095367	-0.25894	0.1152	0.011749	-0.028534	0.15228	-0.25375	0.10727	-0.039215	-0.00885	0.28336	0.041351	-0.027008	-0.007019	0.077972	-0.006561	-0.099182	-0.40649	-0.003357	-0.014038
39.386	0.03067	0.18707	-0.14465	0.007935	0.045166	0.083008	-0.063019	-0.005341	-0.10117	0.011292	-0.028381	-0.010681	-0.031891	-0.043945	0.07019	0.00824	-0.031128	0.15228	-0.40283	0.14847	-0.024414	-0.010681	0.31143	0.021515	-0.025635	-0.012665	0.23941	-0.006561	-0.12589	-0.40985	-0.002289	-0.014801
39.387	0.007172	0.18265	-0.24475	0.020142	0.010223	0.1622	-0.056	0.00473	0.013733	0.058441	-0.033417	-0.009766	0.079041	-0.006409	0.033417	0.012512	-0.067902	0.14648	-0.47348	0.224	-0.028076	-0.02243	0.28961	0.044556	-0.044403	-0.007629	0.2945	-0.008545	-0.13214	-0.38864	-0.000916	-0.014038
39.388	0.00473	0.15152	-0.089417	0.026703	0.005341	0.23789	-0.055847	0.009003	0.20371	0.078888	-0.026703	-0.012665	0.26886	-0.21835	-0.00885	0.015717	-0.089874	0.11627	-0.47546	0.42786	-0.033569	-0.02533	0.30991	0.088959	-0.046234	-0.011597	0.2565	-0.007629	-0.057831	-0.30624	-0.00351	-0.020599
39.389	0.014801	0.25803	0.25345	0.017395	0.016174	0.28732	-0.096436	0.0177	0.26672	0.11459	-0.025635	-0.005951	0.005493	-0.27756	-0.004272	0.012207	-0.062866	0.15381	-0.3447	0.35873	-0.045776	-0.038605	0.28458	0.083923	-0.063171	0.003052	0.14023	-0.004578	0.036774	-0.18295	-0.001831	-0.013275
39.39	-0.004272	0.3122	0.18356	0.008392	0.023651	0.28839	-0.086823	0.037994	0.25665	0.079041	-0.007782	0.005798	-0.074005	-0.29098	0.008698	0.006866	-0.019989	0.2478	-0.27573	0.064697	-0.039063	-0.019836	0.26291	0.052185	-0.045013	0.016479	-0.46173	-0.003815	0.066376	-0.1268	-0.006866	-0.012512
39.391	-0.02243	0.18478	-0.10208	0.004578	0.009766	0.23224	-0.12131	0.038452	0.21439	0.048523	-0.020447	0.007935	0.073853	-0.16113	0.008545	0.007935	0.035095	0.18173	-0.35507	-0.10315	-0.037537	-0.0354	0.19226	0.067139	-0.031433	0.002136	-1.0277	-0.002136	0.073547	-0.10025	0.000763	-0.011902
39.392	-0.022888	0.066223	0.034332	-0.019379	-0.025024	0.16937	-0.13733	0.015411	0.19653	0.024872	-0.09964	0.013733	0.085907	-0.054016	0.007172	0.006714	0.077515	0.14038	-0.4042	-0.049133	-0.025482	-0.000305	0.15106	0.070038	-0.002747	0.008392	-1.0248	-0.008698	0.12329	-0.041199	-0.00061	-0.009918
